<svg xmlns="http://www.w3.org/2000/svg" xmlns:xlink="http://www.w3.org/1999/xlink" width="960" zoomAndPan="magnify" viewBox="0 0 720 719.999996" height="960" preserveAspectRatio="xMidYMid meet" version="1.0"><defs><g/><clipPath id="ce3a37edd3"><path d="M 0.824219 0.824219 L 477.179688 0.824219 L 477.179688 477.179688 L 0.824219 477.179688 Z M 0.824219 0.824219 " clip-rule="nonzero"/></clipPath><clipPath id="dc15545f19"><path d="M 62.3125 112.242188 L 290.050781 112.242188 L 290.050781 287.789062 L 62.3125 287.789062 Z M 62.3125 112.242188 " clip-rule="nonzero"/></clipPath><clipPath id="b50447acb6"><path d="M 189.535156 112.242188 L 412.53125 112.242188 L 412.53125 306.769531 L 189.535156 306.769531 Z M 189.535156 112.242188 " clip-rule="nonzero"/></clipPath><clipPath id="23d38a174d"><path d="M 0.566406 0.242188 L 223.519531 0.242188 L 223.519531 194.769531 L 0.566406 194.769531 Z M 0.566406 0.242188 " clip-rule="nonzero"/></clipPath><clipPath id="947a0be915"><rect x="0" width="224" y="0" height="195"/></clipPath><clipPath id="c59f7ed06a"><path d="M 230.621094 291.433594 L 412.628906 291.433594 L 412.628906 312.40625 L 230.621094 312.40625 Z M 230.621094 291.433594 " clip-rule="nonzero"/></clipPath><clipPath id="cfccbfba2b"><path d="M 241.105469 291.433594 L 402.089844 291.433594 C 404.871094 291.433594 407.539062 292.539062 409.503906 294.507812 C 411.472656 296.472656 412.574219 299.140625 412.574219 301.921875 C 412.574219 304.699219 411.472656 307.367188 409.503906 309.332031 C 407.539062 311.300781 404.871094 312.40625 402.089844 312.40625 L 241.105469 312.40625 C 238.324219 312.40625 235.660156 311.300781 233.691406 309.332031 C 231.726562 307.367188 230.621094 304.699219 230.621094 301.921875 C 230.621094 299.140625 231.726562 296.472656 233.691406 294.507812 C 235.660156 292.539062 238.324219 291.433594 241.105469 291.433594 Z M 241.105469 291.433594 " clip-rule="nonzero"/></clipPath><clipPath id="9b444077b1"><path d="M 0.621094 0.433594 L 182.628906 0.433594 L 182.628906 21.40625 L 0.621094 21.40625 Z M 0.621094 0.433594 " clip-rule="nonzero"/></clipPath><clipPath id="0e067e33d2"><path d="M 11.105469 0.433594 L 172.089844 0.433594 C 174.871094 0.433594 177.539062 1.539062 179.503906 3.507812 C 181.472656 5.472656 182.574219 8.140625 182.574219 10.921875 C 182.574219 13.699219 181.472656 16.367188 179.503906 18.332031 C 177.539062 20.300781 174.871094 21.40625 172.089844 21.40625 L 11.105469 21.40625 C 8.324219 21.40625 5.660156 20.300781 3.691406 18.332031 C 1.726562 16.367188 0.621094 13.699219 0.621094 10.921875 C 0.621094 8.140625 1.726562 5.472656 3.691406 3.507812 C 5.660156 1.539062 8.324219 0.433594 11.105469 0.433594 Z M 11.105469 0.433594 " clip-rule="nonzero"/></clipPath><clipPath id="2d6a4299ce"><rect x="0" width="183" y="0" height="22"/></clipPath><clipPath id="954c4d96ff"><rect x="0" width="347" y="0" height="46"/></clipPath><clipPath id="16e9d5d739"><rect x="0" width="339" y="0" height="41"/></clipPath><clipPath id="d4d257cd31"><rect x="0" width="478" y="0" height="478"/></clipPath></defs><g transform="matrix(1, 0, 0, 1, 121, 121)"><g clip-path="url(#d4d257cd31)"><g clip-path="url(#ce3a37edd3)"><path fill="#ffffff" d="M 477.179688 239.003906 C 477.179688 242.902344 477.085938 246.796875 476.894531 250.691406 C 476.703125 254.582031 476.417969 258.46875 476.035156 262.347656 C 475.652344 266.226562 475.175781 270.097656 474.601562 273.953125 C 474.03125 277.808594 473.363281 281.648438 472.605469 285.46875 C 471.84375 289.292969 470.992188 293.09375 470.042969 296.875 C 469.097656 300.65625 468.058594 304.414062 466.925781 308.144531 C 465.792969 311.871094 464.570312 315.574219 463.257812 319.242188 C 461.945312 322.914062 460.542969 326.550781 459.050781 330.148438 C 457.558594 333.75 455.980469 337.3125 454.3125 340.835938 C 452.648438 344.363281 450.894531 347.84375 449.058594 351.28125 C 447.21875 354.71875 445.300781 358.109375 443.296875 361.453125 C 441.292969 364.792969 439.207031 368.085938 437.042969 371.328125 C 434.875 374.570312 432.632812 377.753906 430.308594 380.886719 C 427.988281 384.015625 425.589844 387.089844 423.117188 390.101562 C 420.644531 393.113281 418.097656 396.066406 415.480469 398.953125 C 412.863281 401.84375 410.175781 404.664062 407.421875 407.421875 C 404.664062 410.175781 401.84375 412.863281 398.953125 415.480469 C 396.066406 418.097656 393.113281 420.644531 390.101562 423.117188 C 387.089844 425.589844 384.015625 427.988281 380.886719 430.308594 C 377.753906 432.632812 374.570312 434.875 371.328125 437.042969 C 368.085938 439.207031 364.792969 441.292969 361.453125 443.296875 C 358.109375 445.300781 354.71875 447.21875 351.28125 449.058594 C 347.84375 450.894531 344.359375 452.648438 340.835938 454.3125 C 337.3125 455.980469 333.75 457.558594 330.148438 459.050781 C 326.550781 460.542969 322.914062 461.945312 319.242188 463.257812 C 315.574219 464.570312 311.871094 465.792969 308.144531 466.925781 C 304.414062 468.058594 300.65625 469.097656 296.875 470.042969 C 293.09375 470.992188 289.292969 471.84375 285.46875 472.605469 C 281.648438 473.363281 277.808594 474.03125 273.953125 474.601562 C 270.097656 475.175781 266.226562 475.652344 262.347656 476.035156 C 258.46875 476.417969 254.582031 476.703125 250.691406 476.894531 C 246.796875 477.085938 242.902344 477.179688 239.003906 477.179688 C 235.105469 477.179688 231.210938 477.085938 227.316406 476.894531 C 223.421875 476.703125 219.539062 476.417969 215.65625 476.035156 C 211.777344 475.652344 207.910156 475.175781 204.054688 474.601562 C 200.199219 474.03125 196.359375 473.363281 192.539062 472.605469 C 188.714844 471.84375 184.914062 470.992188 181.132812 470.042969 C 177.351562 469.097656 173.59375 468.058594 169.863281 466.925781 C 166.132812 465.792969 162.433594 464.570312 158.765625 463.257812 C 155.09375 461.945312 151.457031 460.542969 147.855469 459.050781 C 144.253906 457.558594 140.691406 455.980469 137.167969 454.3125 C 133.644531 452.648438 130.164062 450.894531 126.726562 449.058594 C 123.289062 447.21875 119.898438 445.300781 116.554688 443.296875 C 113.210938 441.292969 109.921875 439.207031 106.679688 437.042969 C 103.4375 434.875 100.253906 432.632812 97.121094 430.308594 C 93.992188 427.988281 90.917969 425.589844 87.90625 423.117188 C 84.890625 420.644531 81.941406 418.097656 79.054688 415.480469 C 76.164062 412.863281 73.34375 410.175781 70.585938 407.421875 C 67.832031 404.664062 65.144531 401.84375 62.527344 398.953125 C 59.90625 396.066406 57.363281 393.113281 54.890625 390.101562 C 52.417969 387.089844 50.019531 384.015625 47.699219 380.886719 C 45.375 377.753906 43.132812 374.570312 40.964844 371.328125 C 38.800781 368.085938 36.714844 364.792969 34.710938 361.453125 C 32.707031 358.109375 30.785156 354.71875 28.949219 351.28125 C 27.113281 347.84375 25.359375 344.359375 23.695312 340.835938 C 22.027344 337.3125 20.449219 333.75 18.957031 330.148438 C 17.464844 326.550781 16.0625 322.914062 14.75 319.242188 C 13.433594 315.574219 12.214844 311.871094 11.082031 308.144531 C 9.949219 304.414062 8.910156 300.65625 7.964844 296.875 C 7.015625 293.09375 6.164062 289.292969 5.402344 285.46875 C 4.640625 281.648438 3.976562 277.808594 3.402344 273.953125 C 2.832031 270.097656 2.355469 266.226562 1.972656 262.347656 C 1.589844 258.46875 1.304688 254.582031 1.113281 250.691406 C 0.921875 246.796875 0.824219 242.902344 0.824219 239.003906 C 0.824219 235.105469 0.921875 231.210938 1.113281 227.316406 C 1.304688 223.421875 1.589844 219.539062 1.972656 215.65625 C 2.355469 211.777344 2.832031 207.910156 3.402344 204.054688 C 3.976562 200.199219 4.640625 196.359375 5.402344 192.539062 C 6.164062 188.714844 7.015625 184.914062 7.964844 181.132812 C 8.910156 177.351562 9.949219 173.59375 11.082031 169.863281 C 12.214844 166.132812 13.433594 162.433594 14.75 158.765625 C 16.0625 155.09375 17.464844 151.457031 18.957031 147.855469 C 20.449219 144.253906 22.027344 140.691406 23.695312 137.167969 C 25.359375 133.644531 27.113281 130.164062 28.949219 126.726562 C 30.785156 123.289062 32.707031 119.898438 34.710938 116.554688 C 36.714844 113.210938 38.800781 109.921875 40.964844 106.679688 C 43.132812 103.4375 45.375 100.253906 47.699219 97.121094 C 50.019531 93.992188 52.417969 90.917969 54.890625 87.90625 C 57.363281 84.890625 59.90625 81.941406 62.527344 79.054688 C 65.144531 76.164062 67.832031 73.34375 70.585938 70.585938 C 73.34375 67.832031 76.164062 65.144531 79.054688 62.527344 C 81.941406 59.90625 84.890625 57.363281 87.90625 54.890625 C 90.917969 52.417969 93.992188 50.019531 97.121094 47.699219 C 100.253906 45.375 103.4375 43.132812 106.679688 40.964844 C 109.921875 38.800781 113.210938 36.714844 116.554688 34.710938 C 119.898438 32.707031 123.289062 30.785156 126.726562 28.949219 C 130.164062 27.113281 133.644531 25.359375 137.167969 23.695312 C 140.691406 22.027344 144.253906 20.449219 147.855469 18.957031 C 151.457031 17.464844 155.09375 16.0625 158.765625 14.75 C 162.433594 13.433594 166.132812 12.214844 169.863281 11.082031 C 173.59375 9.949219 177.351562 8.910156 181.132812 7.964844 C 184.914062 7.015625 188.714844 6.164062 192.539062 5.402344 C 196.359375 4.640625 200.199219 3.976562 204.054688 3.402344 C 207.910156 2.832031 211.777344 2.355469 215.65625 1.972656 C 219.539062 1.589844 223.421875 1.304688 227.316406 1.113281 C 231.210938 0.921875 235.105469 0.824219 239.003906 0.824219 C 242.902344 0.824219 246.796875 0.921875 250.691406 1.113281 C 254.582031 1.304688 258.46875 1.589844 262.347656 1.972656 C 266.226562 2.355469 270.097656 2.832031 273.953125 3.402344 C 277.808594 3.976562 281.648438 4.640625 285.46875 5.402344 C 289.292969 6.164062 293.09375 7.015625 296.875 7.964844 C 300.65625 8.910156 304.414062 9.949219 308.144531 11.082031 C 311.871094 12.214844 315.574219 13.433594 319.242188 14.75 C 322.914062 16.0625 326.550781 17.464844 330.148438 18.957031 C 333.75 20.449219 337.3125 22.027344 340.835938 23.695312 C 344.359375 25.359375 347.84375 27.113281 351.28125 28.949219 C 354.71875 30.785156 358.109375 32.707031 361.453125 34.710938 C 364.792969 36.714844 368.085938 38.800781 371.328125 40.964844 C 374.570312 43.132812 377.753906 45.375 380.886719 47.699219 C 384.015625 50.019531 387.089844 52.417969 390.101562 54.890625 C 393.113281 57.363281 396.066406 59.90625 398.953125 62.527344 C 401.84375 65.144531 404.664062 67.832031 407.421875 70.585938 C 410.175781 73.34375 412.863281 76.164062 415.480469 79.054688 C 418.097656 81.941406 420.644531 84.890625 423.117188 87.90625 C 425.589844 90.917969 427.988281 93.992188 430.308594 97.121094 C 432.632812 100.253906 434.875 103.4375 437.042969 106.679688 C 439.207031 109.921875 441.292969 113.210938 443.296875 116.554688 C 445.300781 119.898438 447.21875 123.289062 449.058594 126.726562 C 450.894531 130.164062 452.648438 133.644531 454.3125 137.167969 C 455.980469 140.691406 457.558594 144.253906 459.050781 147.855469 C 460.542969 151.457031 461.945312 155.09375 463.257812 158.765625 C 464.570312 162.433594 465.792969 166.132812 466.925781 169.863281 C 468.058594 173.59375 469.097656 177.351562 470.042969 181.132812 C 470.992188 184.914062 471.84375 188.714844 472.605469 192.539062 C 473.363281 196.359375 474.03125 200.199219 474.601562 204.054688 C 475.175781 207.910156 475.652344 211.777344 476.035156 215.65625 C 476.417969 219.539062 476.703125 223.421875 476.894531 227.316406 C 477.085938 231.210938 477.179688 235.105469 477.179688 239.003906 Z M 477.179688 239.003906 " fill-opacity="1" fill-rule="nonzero"/></g><path fill="#212121" d="M 239.003906 454.464844 C 120.09375 454.464844 23.542969 357.914062 23.542969 239.003906 C 23.542969 120.09375 120.09375 23.542969 239.003906 23.542969 C 357.914062 23.542969 454.464844 120.09375 454.464844 239.003906 C 454.464844 357.914062 357.914062 454.464844 239.003906 454.464844 Z M 239.003906 28.867188 C 122.933594 28.867188 28.867188 122.933594 28.867188 239.003906 C 28.867188 355.074219 123.285156 449.140625 239.003906 449.140625 C 355.074219 449.140625 449.140625 354.71875 449.140625 239.003906 C 449.140625 122.933594 355.074219 28.867188 239.003906 28.867188 Z M 239.003906 28.867188 " fill-opacity="1" fill-rule="nonzero"/><g clip-path="url(#dc15545f19)"><path fill="#0c4552" d="M 104.503906 168.621094 C 109.183594 176.476562 113.945312 184.441406 118.722656 192.464844 C 119.9375 194.507812 121.171875 196.570312 122.402344 198.625 C 124.5625 202.253906 126.726562 205.886719 128.882812 209.527344 C 135.921875 221.328125 142.960938 233.125 149.875 244.710938 C 153.394531 250.613281 161.925781 250.605469 165.433594 244.710938 C 170.222656 236.671875 175.066406 228.539062 179.941406 220.378906 C 181.320312 218.054688 181.320312 215.164062 179.941406 212.847656 C 175.882812 206.050781 171.824219 199.230469 167.789062 192.460938 L 242.390625 192.460938 C 230.273438 212.769531 217.605469 234.027344 205.089844 255.027344 L 201.800781 260.425781 L 198.742188 265.457031 L 198.640625 265.605469 C 192.539062 274.394531 183.820312 281.136719 173.671875 284.652344 C 168.621094 286.390625 163.234375 287.339844 157.621094 287.339844 C 152.023438 287.339844 146.644531 286.40625 141.625 284.667969 C 131.082031 281.046875 122.105469 273.945312 115.976562 264.683594 C 115.144531 263.285156 114.300781 261.875 113.457031 260.46875 C 100.203125 238.21875 86.691406 215.554688 73.796875 193.925781 C 73.492188 193.433594 73.203125 192.957031 72.917969 192.464844 C 70.65625 188.679688 68.417969 184.921875 66.203125 181.210938 C 63.796875 175.363281 62.480469 168.964844 62.480469 162.257812 C 62.480469 158.867188 62.8125 155.550781 63.464844 152.355469 C 65.585938 141.769531 71.050781 132.398438 78.707031 125.386719 C 87.609375 117.214844 99.476562 112.242188 112.496094 112.242188 C 115.144531 112.242188 117.75 112.445312 120.277344 112.84375 C 120.160156 112.636719 120.035156 112.4375 119.917969 112.242188 L 290.28125 112.242188 C 283.214844 124.050781 275.113281 137.628906 266.324219 152.355469 L 113.738281 152.355469 C 105.394531 152.355469 100.226562 161.449219 104.503906 168.621094 Z M 104.503906 168.621094 " fill-opacity="1" fill-rule="nonzero"/></g><g clip-path="url(#b50447acb6)"><g transform="matrix(1, 0, 0, 1, 189, 112)"><g clip-path="url(#947a0be915)"><g clip-path="url(#23d38a174d)"><path fill="#00adef" d="M 136.085938 132.734375 L 129.988281 132.734375 C 127.410156 132.734375 125.296875 134.84375 125.296875 137.421875 C 125.296875 140.003906 127.410156 142.113281 129.988281 142.113281 L 136.085938 142.113281 C 138.664062 142.113281 140.773438 140.003906 140.773438 137.421875 C 140.773438 134.84375 138.664062 132.734375 136.085938 132.734375 Z M 148.511719 37.644531 C 146.402344 37.175781 144.878906 35.296875 144.878906 33.070312 C 144.878906 30.726562 146.636719 28.730469 148.867188 28.378906 L 168.5625 28.378906 C 171.144531 28.378906 173.253906 26.269531 173.253906 23.691406 C 173.253906 21.109375 171.144531 19 168.5625 19 L 139.367188 19 C 136.789062 19 134.679688 16.890625 134.679688 14.308594 C 134.679688 11.964844 136.4375 9.972656 138.664062 9.621094 L 162.816406 9.621094 C 165.398438 9.621094 167.507812 7.511719 167.507812 4.929688 C 167.507812 2.351562 165.398438 0.242188 162.816406 0.242188 L 9.105469 0.242188 C 4.414062 0.242188 0.660156 3.992188 0.660156 8.683594 L 0.660156 31.3125 C 0.660156 36 4.414062 39.753906 9.105469 39.753906 L 51.546875 39.753906 C 56.238281 39.753906 59.992188 43.503906 59.992188 48.195312 L 59.992188 186.667969 C 59.992188 191.355469 63.742188 195.109375 68.433594 195.109375 L 107.476562 195.109375 C 107.59375 194.757812 107.59375 194.289062 107.59375 193.9375 C 107.59375 191.355469 105.484375 189.246094 102.902344 189.246094 L 95.867188 189.246094 C 93.289062 189.246094 91.179688 187.136719 91.179688 184.558594 C 91.179688 181.976562 93.289062 179.867188 95.867188 179.867188 L 110.40625 179.867188 C 112.988281 179.867188 115.097656 177.757812 115.097656 175.175781 C 115.097656 172.597656 112.988281 170.488281 110.40625 170.488281 L 122.484375 170.488281 L 102.316406 170.488281 C 99.738281 170.488281 97.628906 168.375 97.628906 165.796875 C 97.628906 163.21875 99.738281 161.105469 102.316406 161.105469 L 111.578125 161.105469 C 114.160156 161.105469 116.269531 158.996094 116.269531 156.417969 C 116.269531 153.835938 114.160156 151.726562 111.578125 151.726562 L 91.882812 151.726562 C 89.300781 151.726562 87.191406 149.617188 87.191406 147.035156 C 87.191406 144.457031 89.300781 142.347656 91.882812 142.347656 L 117.441406 142.347656 C 120.023438 142.347656 122.132812 140.238281 122.132812 137.65625 C 122.132812 135.078125 120.023438 132.96875 117.441406 132.96875 L 99.738281 132.96875 C 97.160156 132.96875 95.046875 130.855469 95.046875 128.277344 C 95.046875 125.699219 97.160156 123.585938 99.738281 123.585938 L 123.421875 123.585938 C 126 123.585938 128.113281 121.476562 128.113281 118.898438 C 128.113281 116.316406 126 114.207031 123.421875 114.207031 L 86.253906 114.207031 C 83.675781 114.207031 81.5625 112.097656 81.5625 109.515625 C 81.5625 106.9375 83.675781 104.828125 86.253906 104.828125 L 108.53125 104.828125 C 111.109375 104.828125 113.222656 102.714844 113.222656 100.136719 C 113.222656 97.558594 111.109375 95.445312 108.53125 95.445312 L 96.453125 95.445312 C 93.875 95.445312 91.765625 93.335938 91.765625 90.757812 C 91.765625 88.175781 93.875 86.066406 96.453125 86.066406 L 114.394531 86.066406 C 116.972656 86.066406 119.082031 83.957031 119.082031 81.378906 C 119.082031 78.796875 116.972656 76.6875 114.394531 76.6875 L 85.199219 76.6875 C 82.621094 76.6875 80.507812 74.578125 80.507812 71.996094 C 80.507812 69.417969 82.621094 67.308594 85.199219 67.308594 L 134.328125 67.308594 C 136.90625 67.308594 139.015625 65.195312 139.015625 62.617188 C 139.015625 60.039062 136.90625 57.925781 134.328125 57.925781 L 100.324219 57.925781 C 97.746094 57.925781 95.632812 55.816406 95.632812 53.238281 C 95.632812 50.65625 97.746094 48.546875 100.324219 48.546875 C 120.84375 48.546875 141.242188 48.664062 161.761719 48.664062 C 164.34375 48.664062 166.453125 46.554688 166.453125 43.976562 C 166.453125 41.394531 164.34375 39.285156 161.761719 39.285156 L 148.511719 39.285156 Z M 142.417969 94.390625 L 128.933594 94.390625 C 126.351562 94.390625 124.242188 96.503906 124.242188 99.082031 C 124.242188 101.660156 126.351562 103.773438 128.933594 103.773438 L 183.804688 103.773438 C 186.386719 103.773438 188.496094 101.660156 188.496094 99.082031 C 188.496094 96.503906 186.386719 94.390625 183.804688 94.390625 Z M 218.746094 18.882812 L 212.648438 18.882812 C 210.070312 18.882812 207.960938 20.992188 207.960938 23.574219 C 207.960938 26.152344 210.070312 28.261719 212.648438 28.261719 L 218.746094 28.261719 C 221.324219 28.261719 223.4375 26.152344 223.4375 23.574219 C 223.4375 20.992188 221.324219 18.882812 218.746094 18.882812 Z M 199.867188 18.882812 L 181.929688 18.882812 C 179.351562 18.882812 177.238281 20.992188 177.238281 23.574219 C 177.238281 26.152344 179.351562 28.261719 181.929688 28.261719 L 199.867188 28.261719 C 202.449219 28.261719 204.558594 26.152344 204.558594 23.574219 C 204.675781 20.992188 202.449219 18.882812 199.867188 18.882812 Z M 131.160156 170.136719 L 125.765625 170.136719 C 123.1875 170.136719 121.078125 172.246094 121.078125 174.824219 C 121.078125 177.40625 123.1875 179.515625 125.765625 179.515625 L 131.160156 179.515625 C 133.738281 179.515625 135.851562 177.40625 135.851562 174.824219 C 135.851562 172.246094 133.738281 170.136719 131.160156 170.136719 Z M 150.273438 113.269531 L 138.664062 113.269531 C 136.085938 113.269531 133.976562 115.378906 133.976562 117.960938 C 133.976562 120.539062 136.085938 122.648438 138.664062 122.648438 L 150.273438 122.648438 C 152.851562 122.648438 154.960938 120.539062 154.960938 117.960938 C 154.960938 115.378906 152.851562 113.269531 150.273438 113.269531 Z M 184.976562 37.644531 L 180.757812 37.644531 C 178.175781 37.644531 176.066406 39.753906 176.066406 42.332031 C 176.066406 44.914062 178.175781 47.023438 180.757812 47.023438 L 184.976562 47.023438 C 187.558594 47.023438 189.667969 44.914062 189.667969 42.332031 C 189.667969 39.753906 187.558594 37.644531 184.976562 37.644531 Z M 151.445312 151.140625 L 131.277344 151.140625 C 128.699219 151.140625 126.589844 153.25 126.589844 155.832031 C 126.589844 158.410156 128.699219 160.519531 131.277344 160.519531 L 151.445312 160.519531 C 154.023438 160.519531 156.136719 158.410156 156.136719 155.832031 C 156.136719 153.367188 154.023438 151.140625 151.445312 151.140625 Z M 169.734375 56.519531 L 151.445312 56.519531 C 148.867188 56.519531 146.753906 58.628906 146.753906 61.210938 C 146.753906 63.789062 148.867188 65.898438 151.445312 65.898438 L 169.734375 65.898438 C 172.316406 65.898438 174.425781 63.789062 174.425781 61.210938 C 174.425781 58.628906 172.316406 56.519531 169.734375 56.519531 Z M 169.734375 56.519531 " fill-opacity="1" fill-rule="evenodd"/></g></g></g></g><g clip-path="url(#c59f7ed06a)"><g clip-path="url(#cfccbfba2b)"><g transform="matrix(1, 0, 0, 1, 230, 291)"><g clip-path="url(#2d6a4299ce)"><g clip-path="url(#9b444077b1)"><g clip-path="url(#0e067e33d2)"><path fill="#ffffff" d="M 0.621094 0.433594 L 182.546875 0.433594 L 182.546875 21.40625 L 0.621094 21.40625 Z M 0.621094 0.433594 " fill-opacity="1" fill-rule="nonzero"/></g></g></g></g></g></g><g transform="matrix(1, 0, 0, 1, 65, 302)"><g clip-path="url(#954c4d96ff)"><g fill="#292626" fill-opacity="1"><g transform="translate(0.424271, 36.403269)"><g><path d="M 17.296875 0.625 C 14.054688 0.625 11.175781 -0.0507812 8.65625 -1.40625 C 6.144531 -2.769531 4.171875 -4.671875 2.734375 -7.109375 C 1.296875 -9.554688 0.578125 -12.398438 0.578125 -15.640625 C 0.578125 -18.035156 0.988281 -20.234375 1.8125 -22.234375 C 2.644531 -24.242188 3.804688 -25.988281 5.296875 -27.46875 C 6.796875 -28.945312 8.5625 -30.097656 10.59375 -30.921875 C 12.632812 -31.753906 14.867188 -32.171875 17.296875 -32.171875 C 19.242188 -32.171875 21.148438 -31.867188 23.015625 -31.265625 C 24.890625 -30.671875 26.585938 -29.707031 28.109375 -28.375 C 29.640625 -27.039062 30.859375 -25.265625 31.765625 -23.046875 L 26.59375 -21.296875 C 25.875 -22.703125 25.003906 -23.789062 23.984375 -24.5625 C 22.972656 -25.34375 21.890625 -25.882812 20.734375 -26.1875 C 19.578125 -26.488281 18.429688 -26.640625 17.296875 -26.640625 C 15.253906 -26.640625 13.445312 -26.164062 11.875 -25.21875 C 10.3125 -24.28125 9.09375 -22.988281 8.21875 -21.34375 C 7.351562 -19.695312 6.921875 -17.804688 6.921875 -15.671875 C 6.921875 -13.546875 7.351562 -11.660156 8.21875 -10.015625 C 9.09375 -8.367188 10.3125 -7.082031 11.875 -6.15625 C 13.445312 -5.226562 15.253906 -4.765625 17.296875 -4.765625 C 18.429688 -4.765625 19.613281 -4.882812 20.84375 -5.125 C 22.070312 -5.363281 23.191406 -5.796875 24.203125 -6.421875 C 25.222656 -7.054688 26.003906 -7.925781 26.546875 -9.03125 L 26.546875 -12.9375 L 15.40625 -12.9375 L 15.40625 -18.015625 L 32.125 -18.015625 L 32.125 -8 C 31.25 -5.84375 30.03125 -4.132812 28.46875 -2.875 C 26.914062 -1.613281 25.171875 -0.710938 23.234375 -0.171875 C 21.304688 0.355469 19.328125 0.625 17.296875 0.625 Z M 17.296875 0.625 "/></g></g></g><g fill="#292626" fill-opacity="1"><g transform="translate(34.690414, 36.403269)"><g><path d="M 2.25 0 L 2.25 -31.453125 L 18.515625 -31.453125 C 19.890625 -31.453125 21.398438 -31.269531 23.046875 -30.90625 C 24.691406 -30.550781 26.160156 -29.863281 27.453125 -28.84375 C 28.554688 -27.945312 29.40625 -26.816406 30 -25.453125 C 30.601562 -24.085938 30.90625 -22.703125 30.90625 -21.296875 C 30.90625 -19.921875 30.582031 -18.535156 29.9375 -17.140625 C 29.289062 -15.742188 28.382812 -14.566406 27.21875 -13.609375 C 25.695312 -12.410156 23.738281 -11.753906 21.34375 -11.640625 L 31.265625 -0.265625 L 31.265625 0 L 24.21875 0 L 14.28125 -11.453125 L 8.484375 -11.453125 L 8.484375 0 Z M 8.484375 -16.578125 L 18.953125 -16.578125 C 20.785156 -16.578125 22.191406 -16.957031 23.171875 -17.71875 C 24.160156 -18.488281 24.65625 -19.695312 24.65625 -21.34375 C 24.65625 -23.132812 24.054688 -24.378906 22.859375 -25.078125 C 21.660156 -25.785156 20.210938 -26.140625 18.515625 -26.140625 L 8.484375 -26.140625 Z M 8.484375 -16.578125 "/></g></g></g><g fill="#292626" fill-opacity="1"><g transform="translate(66.756087, 36.403269)"><g><path d="M -1.03125 0 L 15 -31.625 L 20.4375 -31.625 L 36.390625 0 L 29.515625 0 L 25.65625 -7.546875 L 9.53125 -7.546875 L 5.65625 0 Z M 12.125 -12.765625 L 23.046875 -12.765625 L 19.90625 -19.546875 L 17.75 -25.34375 L 15.40625 -19.453125 Z M 12.125 -12.765625 "/></g></g></g><g fill="#292626" fill-opacity="1"><g transform="translate(98.056981, 36.403269)"><g><path d="M 14.921875 0.1875 L -0.765625 -31.265625 L -0.765625 -31.453125 L 6.109375 -31.453125 L 15.90625 -11.5 L 18.0625 -5.21875 L 20.3125 -11.546875 L 30.09375 -31.453125 L 36.96875 -31.453125 L 36.96875 -31.171875 L 21.03125 0.1875 Z M 14.921875 0.1875 "/></g></g></g><g fill="#292626" fill-opacity="1"><g transform="translate(135.062759, 36.403269)"><g><path d="M 2.25 0 L 2.25 -31.453125 L 8.484375 -31.453125 L 8.484375 0 Z M 2.25 0 "/></g></g></g><g fill="#292626" fill-opacity="1"><g transform="translate(147.952189, 36.403269)"><g><path d="M 11.8125 0 L 11.8125 -26.09375 L -0.40625 -26.09375 L -0.40625 -31.453125 L 30.28125 -31.453125 L 30.28125 -26.09375 L 18.109375 -26.09375 L 18.109375 0 Z M 11.8125 0 "/></g></g></g><g fill="#292626" fill-opacity="1"><g transform="translate(180.467477, 36.403269)"><g><path d="M 13.4375 0 L 13.4375 -12.265625 L -1.171875 -31.453125 L 6.109375 -31.453125 L 16.578125 -17.515625 L 27.09375 -31.453125 L 34.359375 -31.453125 L 19.71875 -12.265625 L 19.71875 0 Z M 13.4375 0 "/></g></g></g><g fill="#00adef" fill-opacity="1"><g transform="translate(216.041978, 36.403269)"><g><path d="M 11.8125 0 L 11.8125 -26.09375 L -0.40625 -26.09375 L -0.40625 -31.453125 L 30.28125 -31.453125 L 30.28125 -26.09375 L 18.109375 -26.09375 L 18.109375 0 Z M 11.8125 0 "/></g></g></g><g fill="#00adef" fill-opacity="1"><g transform="translate(246.670525, 36.403269)"><g><path d="M 2.203125 0 L 2.203125 -31.453125 L 27.359375 -31.453125 L 27.359375 -26.09375 L 8.21875 -26.09375 L 8.21875 -18.28125 L 26.59375 -18.28125 L 26.59375 -13.125 L 8.21875 -13.125 L 8.21875 -5.34375 L 27.359375 -5.34375 L 27.359375 0 Z M 2.203125 0 "/></g></g></g><g fill="#00adef" fill-opacity="1"><g transform="translate(276.62568, 36.403269)"><g><path d="M 17.25 0.765625 C 14.820312 0.765625 12.582031 0.351562 10.53125 -0.46875 C 8.476562 -1.289062 6.703125 -2.441406 5.203125 -3.921875 C 3.710938 -5.410156 2.554688 -7.164062 1.734375 -9.1875 C 0.910156 -11.207031 0.5 -13.414062 0.5 -15.8125 C 0.5 -18.207031 0.910156 -20.40625 1.734375 -22.40625 C 2.554688 -24.414062 3.710938 -26.15625 5.203125 -27.625 C 6.703125 -29.09375 8.476562 -30.226562 10.53125 -31.03125 C 12.582031 -31.84375 14.820312 -32.25 17.25 -32.25 C 19.289062 -32.25 21.289062 -31.921875 23.25 -31.265625 C 25.207031 -30.609375 26.960938 -29.550781 28.515625 -28.09375 C 30.078125 -26.644531 31.296875 -24.707031 32.171875 -22.28125 L 27 -20.4375 C 26.3125 -22.082031 25.4375 -23.363281 24.375 -24.28125 C 23.3125 -25.195312 22.164062 -25.84375 20.9375 -26.21875 C 19.707031 -26.59375 18.476562 -26.78125 17.25 -26.78125 C 15.21875 -26.78125 13.421875 -26.3125 11.859375 -25.375 C 10.304688 -24.445312 9.085938 -23.160156 8.203125 -21.515625 C 7.316406 -19.867188 6.875 -17.96875 6.875 -15.8125 C 6.875 -13.6875 7.316406 -11.773438 8.203125 -10.078125 C 9.085938 -8.390625 10.304688 -7.066406 11.859375 -6.109375 C 13.421875 -5.148438 15.21875 -4.671875 17.25 -4.671875 C 18.476562 -4.671875 19.707031 -4.875 20.9375 -5.28125 C 22.164062 -5.6875 23.3125 -6.375 24.375 -7.34375 C 25.4375 -8.320312 26.3125 -9.632812 27 -11.28125 L 32.4375 -9.5625 C 31.414062 -7.050781 30.109375 -5.039062 28.515625 -3.53125 C 26.929688 -2.019531 25.171875 -0.925781 23.234375 -0.25 C 21.304688 0.425781 19.3125 0.765625 17.25 0.765625 Z M 17.25 0.765625 "/></g></g></g><g fill="#00adef" fill-opacity="1"><g transform="translate(310.757611, 36.403269)"><g><path d="M 2.25 0 L 2.25 -31.453125 L 8.53125 -31.453125 L 8.53125 -18.421875 L 25.46875 -18.421875 L 25.46875 -31.453125 L 31.71875 -31.453125 L 31.71875 0 L 25.46875 0 L 25.46875 -13.03125 L 8.53125 -13.03125 L 8.53125 0 Z M 2.25 0 "/></g></g></g></g></g><g transform="matrix(1, 0, 0, 1, 81, 341)"><g clip-path="url(#16e9d5d739)"><g fill="#00adef" fill-opacity="1"><g transform="translate(0.519915, 29.192448)"><g><path d="M 8.953125 0.203125 C 7.492188 0.203125 6.1875 -0.03125 5.03125 -0.5 C 3.882812 -0.976562 2.96875 -1.675781 2.28125 -2.59375 C 1.59375 -3.519531 1.226562 -4.640625 1.1875 -5.953125 L 6.34375 -5.953125 C 6.414062 -5.210938 6.664062 -4.648438 7.09375 -4.265625 C 7.53125 -3.878906 8.101562 -3.6875 8.8125 -3.6875 C 9.519531 -3.6875 10.082031 -3.847656 10.5 -4.171875 C 10.914062 -4.503906 11.125 -4.960938 11.125 -5.546875 C 11.125 -6.035156 10.957031 -6.441406 10.625 -6.765625 C 10.300781 -7.085938 9.894531 -7.351562 9.40625 -7.5625 C 8.925781 -7.769531 8.242188 -8.003906 7.359375 -8.265625 C 6.078125 -8.660156 5.03125 -9.054688 4.21875 -9.453125 C 3.40625 -9.847656 2.707031 -10.429688 2.125 -11.203125 C 1.539062 -11.984375 1.25 -12.992188 1.25 -14.234375 C 1.25 -16.085938 1.914062 -17.535156 3.25 -18.578125 C 4.59375 -19.628906 6.34375 -20.15625 8.5 -20.15625 C 10.6875 -20.15625 12.445312 -19.628906 13.78125 -18.578125 C 15.125 -17.535156 15.84375 -16.082031 15.9375 -14.21875 L 10.703125 -14.21875 C 10.660156 -14.851562 10.421875 -15.351562 9.984375 -15.71875 C 9.554688 -16.09375 9.003906 -16.28125 8.328125 -16.28125 C 7.742188 -16.28125 7.269531 -16.125 6.90625 -15.8125 C 6.550781 -15.5 6.375 -15.050781 6.375 -14.46875 C 6.375 -13.820312 6.675781 -13.316406 7.28125 -12.953125 C 7.882812 -12.597656 8.828125 -12.21875 10.109375 -11.8125 C 11.390625 -11.375 12.429688 -10.957031 13.234375 -10.5625 C 14.035156 -10.164062 14.726562 -9.585938 15.3125 -8.828125 C 15.894531 -8.078125 16.1875 -7.109375 16.1875 -5.921875 C 16.1875 -4.785156 15.898438 -3.753906 15.328125 -2.828125 C 14.753906 -1.898438 13.921875 -1.160156 12.828125 -0.609375 C 11.734375 -0.0664062 10.441406 0.203125 8.953125 0.203125 Z M 8.953125 0.203125 "/></g></g></g><g fill="#00adef" fill-opacity="1"><g transform="translate(40.59218, 29.192448)"><g><path d="M 11.15625 0.203125 C 9.289062 0.203125 7.578125 -0.226562 6.015625 -1.09375 C 4.460938 -1.96875 3.226562 -3.179688 2.3125 -4.734375 C 1.394531 -6.296875 0.9375 -8.050781 0.9375 -10 C 0.9375 -11.9375 1.394531 -13.675781 2.3125 -15.21875 C 3.226562 -16.769531 4.460938 -17.976562 6.015625 -18.84375 C 7.578125 -19.71875 9.289062 -20.15625 11.15625 -20.15625 C 13.019531 -20.15625 14.726562 -19.71875 16.28125 -18.84375 C 17.84375 -17.976562 19.070312 -16.769531 19.96875 -15.21875 C 20.863281 -13.675781 21.3125 -11.9375 21.3125 -10 C 21.3125 -8.050781 20.859375 -6.296875 19.953125 -4.734375 C 19.046875 -3.179688 17.816406 -1.96875 16.265625 -1.09375 C 14.722656 -0.226562 13.019531 0.203125 11.15625 0.203125 Z M 11.15625 -4.21875 C 12.738281 -4.21875 14.003906 -4.742188 14.953125 -5.796875 C 15.910156 -6.859375 16.390625 -8.257812 16.390625 -10 C 16.390625 -11.75 15.910156 -13.144531 14.953125 -14.1875 C 14.003906 -15.238281 12.738281 -15.765625 11.15625 -15.765625 C 9.550781 -15.765625 8.269531 -15.242188 7.3125 -14.203125 C 6.363281 -13.171875 5.890625 -11.769531 5.890625 -10 C 5.890625 -8.238281 6.363281 -6.832031 7.3125 -5.78125 C 8.269531 -4.738281 9.550781 -4.21875 11.15625 -4.21875 Z M 11.15625 -4.21875 "/></g></g></g><g fill="#00adef" fill-opacity="1"><g transform="translate(85.505952, 29.192448)"><g><path d="M 14.6875 -19.875 L 14.6875 -16 L 6.59375 -16 L 6.59375 -11.8125 L 12.65625 -11.8125 L 12.65625 -8.046875 L 6.59375 -8.046875 L 6.59375 0 L 1.75 0 L 1.75 -19.875 Z M 14.6875 -19.875 "/></g></g></g><g fill="#00adef" fill-opacity="1"><g transform="translate(123.652942, 29.192448)"><g><path d="M 16.046875 -19.875 L 16.046875 -16 L 10.78125 -16 L 10.78125 0 L 5.953125 0 L 5.953125 -16 L 0.671875 -16 L 0.671875 -19.875 Z M 16.046875 -19.875 "/></g></g></g><g fill="#00adef" fill-opacity="1"><g transform="translate(163.045691, 29.192448)"><g><path d="M 29.109375 -19.875 L 23.921875 0 L 18.0625 0 L 14.890625 -13.078125 L 11.609375 0 L 5.75 0 L 0.703125 -19.875 L 5.890625 -19.875 L 8.75 -5.40625 L 12.28125 -19.875 L 17.609375 -19.875 L 21.015625 -5.40625 L 23.890625 -19.875 Z M 29.109375 -19.875 "/></g></g></g><g fill="#00adef" fill-opacity="1"><g transform="translate(215.490713, 29.192448)"><g><path d="M 14.125 -3.515625 L 6.703125 -3.515625 L 5.515625 0 L 0.453125 0 L 7.640625 -19.875 L 13.25 -19.875 L 20.4375 0 L 15.3125 0 Z M 12.875 -7.25 L 10.421875 -14.53125 L 7.984375 -7.25 Z M 12.875 -7.25 "/></g></g></g><g fill="#00adef" fill-opacity="1"><g transform="translate(259.017173, 29.192448)"><g><path d="M 11.890625 0 L 7.75 -7.5 L 6.59375 -7.5 L 6.59375 0 L 1.75 0 L 1.75 -19.875 L 9.875 -19.875 C 11.445312 -19.875 12.785156 -19.597656 13.890625 -19.046875 C 14.992188 -18.503906 15.816406 -17.753906 16.359375 -16.796875 C 16.910156 -15.847656 17.1875 -14.789062 17.1875 -13.625 C 17.1875 -12.300781 16.8125 -11.117188 16.0625 -10.078125 C 15.320312 -9.035156 14.222656 -8.300781 12.765625 -7.875 L 17.359375 0 Z M 6.59375 -10.921875 L 9.59375 -10.921875 C 10.476562 -10.921875 11.144531 -11.140625 11.59375 -11.578125 C 12.039062 -12.015625 12.265625 -12.628906 12.265625 -13.421875 C 12.265625 -14.171875 12.039062 -14.765625 11.59375 -15.203125 C 11.144531 -15.640625 10.476562 -15.859375 9.59375 -15.859375 L 6.59375 -15.859375 Z M 6.59375 -10.921875 "/></g></g></g><g fill="#00adef" fill-opacity="1"><g transform="translate(300.136985, 29.192448)"><g><path d="M 6.59375 -16 L 6.59375 -11.96875 L 13.078125 -11.96875 L 13.078125 -8.234375 L 6.59375 -8.234375 L 6.59375 -3.875 L 13.9375 -3.875 L 13.9375 0 L 1.75 0 L 1.75 -19.875 L 13.9375 -19.875 L 13.9375 -16 Z M 6.59375 -16 "/></g></g></g></g></g></g></g></svg>