<svg xmlns="http://www.w3.org/2000/svg" xmlns:xlink="http://www.w3.org/1999/xlink" width="1440" zoomAndPan="magnify" viewBox="0 0 1080 215.999996" height="288" preserveAspectRatio="xMidYMid meet" version="1.0"><defs><g/><clipPath id="4ba16273c8"><path d="M 0.519531 0.601562 L 194.359375 0.601562 L 194.359375 149.371094 L 0.519531 149.371094 Z M 0.519531 0.601562 " clip-rule="nonzero"/></clipPath><clipPath id="00cea05d4b"><path d="M 108.5 0.601562 L 297.777344 0.601562 L 297.777344 166.507812 L 108.5 166.507812 Z M 108.5 0.601562 " clip-rule="nonzero"/></clipPath><clipPath id="ad9c046e66"><path d="M 0.707031 0.601562 L 189.777344 0.601562 L 189.777344 166.507812 L 0.707031 166.507812 Z M 0.707031 0.601562 " clip-rule="nonzero"/></clipPath><clipPath id="03077071b5"><rect x="0" width="190" y="0" height="167"/></clipPath><clipPath id="a4a4f55c86"><path d="M 324 9 L 1032.28125 9 L 1032.28125 102 L 324 102 Z M 324 9 " clip-rule="nonzero"/></clipPath><clipPath id="509be706a2"><rect x="0" width="709" y="0" height="93"/></clipPath><clipPath id="bcf492e852"><rect x="0" width="262" y="0" height="67"/></clipPath><clipPath id="b7148032b5"><rect x="0" width="1033" y="0" height="167"/></clipPath></defs><g transform="matrix(1, 0, 0, 1, 23, 21)"><g clip-path="url(#b7148032b5)"><g clip-path="url(#4ba16273c8)"><path fill="#ffffff" d="M 36.257812 48.503906 C 40.234375 55.175781 44.277344 61.941406 48.339844 68.757812 C 49.367188 70.496094 50.417969 72.246094 51.460938 73.992188 C 53.296875 77.078125 55.136719 80.164062 56.972656 83.257812 C 62.953125 93.28125 68.933594 103.308594 74.804688 113.152344 C 77.796875 118.164062 85.042969 118.15625 88.023438 113.152344 C 92.09375 106.320312 96.207031 99.410156 100.347656 92.476562 C 101.523438 90.503906 101.523438 88.042969 100.347656 86.078125 C 96.902344 80.300781 93.453125 74.507812 90.023438 68.753906 L 153.40625 68.753906 C 143.113281 86.011719 132.351562 104.074219 121.714844 121.914062 L 118.921875 126.503906 L 116.324219 130.777344 L 116.238281 130.902344 C 111.050781 138.371094 103.648438 144.097656 95.023438 147.082031 C 90.734375 148.5625 86.152344 149.367188 81.386719 149.367188 C 76.632812 149.367188 72.058594 148.574219 67.792969 147.097656 C 58.835938 144.023438 51.210938 137.988281 46.003906 130.117188 C 45.296875 128.929688 44.582031 127.734375 43.863281 126.535156 C 32.605469 107.636719 21.121094 88.378906 10.167969 70.003906 C 9.910156 69.582031 9.664062 69.175781 9.421875 68.757812 C 7.5 65.542969 5.597656 62.351562 3.714844 59.199219 C 1.671875 54.230469 0.550781 48.792969 0.550781 43.09375 C 0.550781 40.214844 0.835938 37.398438 1.386719 34.683594 C 3.191406 25.6875 7.832031 17.726562 14.339844 11.769531 C 21.90625 4.828125 31.984375 0.601562 43.046875 0.601562 C 45.296875 0.601562 47.511719 0.773438 49.660156 1.109375 C 49.558594 0.9375 49.453125 0.765625 49.351562 0.601562 L 194.097656 0.601562 C 188.09375 10.632812 181.207031 22.167969 173.742188 34.683594 L 44.105469 34.683594 C 37.011719 34.683594 32.621094 42.410156 36.257812 48.503906 Z M 36.257812 48.503906 " fill-opacity="1" fill-rule="nonzero"/></g><g clip-path="url(#00cea05d4b)"><g transform="matrix(1, 0, 0, 1, 108, 0)"><g clip-path="url(#03077071b5)"><g clip-path="url(#ad9c046e66)"><path fill="#00adef" d="M 115.664062 113.171875 L 110.484375 113.171875 C 108.292969 113.171875 106.5 114.964844 106.5 117.15625 C 106.5 119.347656 108.292969 121.140625 110.484375 121.140625 L 115.664062 121.140625 C 117.855469 121.140625 119.648438 119.347656 119.648438 117.15625 C 119.648438 114.964844 117.855469 113.171875 115.664062 113.171875 Z M 126.222656 32.378906 C 124.429688 31.980469 123.136719 30.386719 123.136719 28.492188 C 123.136719 26.5 124.628906 24.808594 126.523438 24.507812 L 143.257812 24.507812 C 145.449219 24.507812 147.242188 22.714844 147.242188 20.523438 C 147.242188 18.332031 145.449219 16.539062 143.257812 16.539062 L 118.453125 16.539062 C 116.261719 16.539062 114.46875 14.746094 114.46875 12.554688 C 114.46875 10.5625 115.964844 8.867188 117.855469 8.570312 L 138.378906 8.570312 C 140.570312 8.570312 142.363281 6.777344 142.363281 4.585938 C 142.363281 2.394531 140.570312 0.601562 138.378906 0.601562 L 7.777344 0.601562 C 3.792969 0.601562 0.605469 3.789062 0.605469 7.773438 L 0.605469 27 C 0.605469 30.984375 3.792969 34.171875 7.777344 34.171875 L 43.839844 34.171875 C 47.824219 34.171875 51.011719 37.359375 51.011719 41.34375 L 51.011719 158.996094 C 51.011719 162.980469 54.199219 166.167969 58.183594 166.167969 L 91.355469 166.167969 C 91.457031 165.867188 91.457031 165.46875 91.457031 165.171875 C 91.457031 162.980469 89.664062 161.1875 87.472656 161.1875 L 81.496094 161.1875 C 79.304688 161.1875 77.511719 159.394531 77.511719 157.203125 C 77.511719 155.011719 79.304688 153.21875 81.496094 153.21875 L 93.847656 153.21875 C 96.039062 153.21875 97.832031 151.425781 97.832031 149.230469 C 97.832031 147.039062 96.039062 145.246094 93.847656 145.246094 L 104.109375 145.246094 L 86.972656 145.246094 C 84.78125 145.246094 82.988281 143.453125 82.988281 141.261719 C 82.988281 139.070312 84.78125 137.277344 86.972656 137.277344 L 94.84375 137.277344 C 97.035156 137.277344 98.828125 135.484375 98.828125 133.292969 C 98.828125 131.101562 97.035156 129.308594 94.84375 129.308594 L 78.109375 129.308594 C 75.917969 129.308594 74.125 127.515625 74.125 125.324219 C 74.125 123.132812 75.917969 121.339844 78.109375 121.339844 L 99.824219 121.339844 C 102.015625 121.339844 103.808594 119.546875 103.808594 117.355469 C 103.808594 115.164062 102.015625 113.371094 99.824219 113.371094 L 84.78125 113.371094 C 82.589844 113.371094 80.796875 111.574219 80.796875 109.382812 C 80.796875 107.191406 82.589844 105.398438 84.78125 105.398438 L 104.90625 105.398438 C 107.097656 105.398438 108.890625 103.605469 108.890625 101.414062 C 108.890625 99.222656 107.097656 97.429688 104.90625 97.429688 L 73.324219 97.429688 C 71.132812 97.429688 69.339844 95.636719 69.339844 93.445312 C 69.339844 91.253906 71.132812 89.460938 73.324219 89.460938 L 92.253906 89.460938 C 94.445312 89.460938 96.238281 87.667969 96.238281 85.476562 C 96.238281 83.285156 94.445312 81.492188 92.253906 81.492188 L 81.992188 81.492188 C 79.800781 81.492188 78.007812 79.699219 78.007812 77.507812 C 78.007812 75.316406 79.800781 73.519531 81.992188 73.519531 L 97.234375 73.519531 C 99.425781 73.519531 101.21875 71.726562 101.21875 69.535156 C 101.21875 67.34375 99.425781 65.550781 97.234375 65.550781 L 72.429688 65.550781 C 70.238281 65.550781 68.445312 63.757812 68.445312 61.566406 C 68.445312 59.375 70.238281 57.582031 72.429688 57.582031 L 114.171875 57.582031 C 116.363281 57.582031 118.15625 55.789062 118.15625 53.597656 C 118.15625 51.40625 116.363281 49.613281 114.171875 49.613281 L 85.28125 49.613281 C 83.089844 49.613281 81.296875 47.820312 81.296875 45.628906 C 81.296875 43.4375 83.089844 41.644531 85.28125 41.644531 C 102.714844 41.644531 120.046875 41.742188 137.480469 41.742188 C 139.671875 41.742188 141.464844 39.949219 141.464844 37.757812 C 141.464844 35.566406 139.671875 33.773438 137.480469 33.773438 L 126.222656 33.773438 Z M 121.042969 80.59375 L 109.585938 80.59375 C 107.394531 80.59375 105.601562 82.386719 105.601562 84.578125 C 105.601562 86.769531 107.394531 88.5625 109.585938 88.5625 L 156.210938 88.5625 C 158.402344 88.5625 160.195312 86.769531 160.195312 84.578125 C 160.195312 82.386719 158.402344 80.59375 156.210938 80.59375 Z M 185.894531 16.441406 L 180.714844 16.441406 C 178.523438 16.441406 176.730469 18.234375 176.730469 20.425781 C 176.730469 22.617188 178.523438 24.410156 180.714844 24.410156 L 185.894531 24.410156 C 188.085938 24.410156 189.882812 22.617188 189.882812 20.425781 C 189.882812 18.234375 188.085938 16.441406 185.894531 16.441406 Z M 169.855469 16.441406 L 154.617188 16.441406 C 152.425781 16.441406 150.628906 18.234375 150.628906 20.425781 C 150.628906 22.617188 152.425781 24.410156 154.617188 24.410156 L 169.855469 24.410156 C 172.050781 24.410156 173.84375 22.617188 173.84375 20.425781 C 173.941406 18.234375 172.050781 16.441406 169.855469 16.441406 Z M 111.480469 144.949219 L 106.898438 144.949219 C 104.707031 144.949219 102.914062 146.742188 102.914062 148.933594 C 102.914062 151.125 104.707031 152.917969 106.898438 152.917969 L 111.480469 152.917969 C 113.671875 152.917969 115.464844 151.125 115.464844 148.933594 C 115.464844 146.742188 113.671875 144.949219 111.480469 144.949219 Z M 127.71875 96.632812 L 117.855469 96.632812 C 115.664062 96.632812 113.871094 98.425781 113.871094 100.617188 C 113.871094 102.808594 115.664062 104.601562 117.855469 104.601562 L 127.71875 104.601562 C 129.910156 104.601562 131.703125 102.808594 131.703125 100.617188 C 131.703125 98.425781 129.910156 96.632812 127.71875 96.632812 Z M 157.207031 32.378906 L 153.621094 32.378906 C 151.429688 32.378906 149.632812 34.171875 149.632812 36.363281 C 149.632812 38.554688 151.429688 40.347656 153.621094 40.347656 L 157.207031 40.347656 C 159.398438 40.347656 161.191406 38.554688 161.191406 36.363281 C 161.191406 34.171875 159.398438 32.378906 157.207031 32.378906 Z M 128.714844 128.808594 L 111.578125 128.808594 C 109.386719 128.808594 107.59375 130.601562 107.59375 132.796875 C 107.59375 134.988281 109.386719 136.78125 111.578125 136.78125 L 128.714844 136.78125 C 130.90625 136.78125 132.699219 134.988281 132.699219 132.796875 C 132.699219 130.703125 130.90625 128.808594 128.714844 128.808594 Z M 144.253906 48.417969 L 128.714844 48.417969 C 126.523438 48.417969 124.730469 50.210938 124.730469 52.402344 C 124.730469 54.59375 126.523438 56.386719 128.714844 56.386719 L 144.253906 56.386719 C 146.445312 56.386719 148.238281 54.59375 148.238281 52.402344 C 148.238281 50.210938 146.445312 48.417969 144.253906 48.417969 Z M 144.253906 48.417969 " fill-opacity="1" fill-rule="evenodd"/></g></g></g></g><g clip-path="url(#a4a4f55c86)"><g transform="matrix(1, 0, 0, 1, 324, 9)"><g clip-path="url(#509be706a2)"><g fill="#ffffff" fill-opacity="1"><g transform="translate(0.0757024, 72.842297)"><g><path d="M 35.4375 1.28125 C 28.8125 1.28125 22.921875 -0.113281 17.765625 -2.90625 C 12.609375 -5.695312 8.554688 -9.59375 5.609375 -14.59375 C 2.671875 -19.59375 1.203125 -25.40625 1.203125 -32.03125 C 1.203125 -36.945312 2.046875 -41.457031 3.734375 -45.5625 C 5.421875 -49.675781 7.796875 -53.253906 10.859375 -56.296875 C 13.929688 -59.335938 17.550781 -61.703125 21.71875 -63.390625 C 25.894531 -65.078125 30.46875 -65.921875 35.4375 -65.921875 C 39.425781 -65.921875 43.335938 -65.304688 47.171875 -64.078125 C 51.015625 -62.847656 54.5 -60.867188 57.625 -58.140625 C 60.757812 -55.410156 63.25 -51.773438 65.09375 -47.234375 L 54.5 -43.640625 C 53.03125 -46.523438 51.25 -48.765625 49.15625 -50.359375 C 47.070312 -51.953125 44.847656 -53.054688 42.484375 -53.671875 C 40.117188 -54.285156 37.769531 -54.59375 35.4375 -54.59375 C 31.269531 -54.59375 27.570312 -53.625 24.34375 -51.6875 C 21.125 -49.757812 18.625 -47.109375 16.84375 -43.734375 C 15.0625 -40.359375 14.171875 -36.488281 14.171875 -32.125 C 14.171875 -27.769531 15.0625 -23.90625 16.84375 -20.53125 C 18.625 -17.15625 21.125 -14.515625 24.34375 -12.609375 C 27.570312 -10.710938 31.269531 -9.765625 35.4375 -9.765625 C 37.769531 -9.765625 40.191406 -10.007812 42.703125 -10.5 C 45.222656 -10.988281 47.523438 -11.875 49.609375 -13.15625 C 51.703125 -14.445312 53.300781 -16.226562 54.40625 -18.5 L 54.40625 -26.515625 L 31.578125 -26.515625 L 31.578125 -36.921875 L 65.828125 -36.921875 L 65.828125 -16.390625 C 64.046875 -11.972656 61.554688 -8.472656 58.359375 -5.890625 C 55.171875 -3.316406 51.597656 -1.476562 47.640625 -0.375 C 43.679688 0.726562 39.613281 1.28125 35.4375 1.28125 Z M 35.4375 1.28125 "/></g></g></g><g fill="#ffffff" fill-opacity="1"><g transform="translate(70.319407, 72.842297)"><g><path d="M 4.609375 0 L 4.609375 -64.4375 L 37.9375 -64.4375 C 40.757812 -64.4375 43.859375 -64.066406 47.234375 -63.328125 C 50.609375 -62.597656 53.613281 -61.191406 56.25 -59.109375 C 58.519531 -57.265625 60.269531 -54.945312 61.5 -52.15625 C 62.726562 -49.363281 63.34375 -46.523438 63.34375 -43.640625 C 63.34375 -40.816406 62.679688 -37.976562 61.359375 -35.125 C 60.035156 -32.269531 58.179688 -29.859375 55.796875 -27.890625 C 52.660156 -25.441406 48.640625 -24.09375 43.734375 -23.84375 L 64.078125 -0.546875 L 64.078125 0 L 49.625 0 L 29.28125 -23.46875 L 17.40625 -23.46875 L 17.40625 0 Z M 17.40625 -33.96875 L 38.84375 -33.96875 C 42.59375 -33.96875 45.476562 -34.75 47.5 -36.3125 C 49.53125 -37.882812 50.546875 -40.359375 50.546875 -43.734375 C 50.546875 -47.410156 49.316406 -49.96875 46.859375 -51.40625 C 44.398438 -52.851562 41.425781 -53.578125 37.9375 -53.578125 L 17.40625 -53.578125 Z M 17.40625 -33.96875 "/></g></g></g><g fill="#ffffff" fill-opacity="1"><g transform="translate(136.052035, 72.842297)"><g><path d="M -2.125 0 L 30.75 -64.8125 L 41.890625 -64.8125 L 74.578125 0 L 60.484375 0 L 52.5625 -15.46875 L 19.515625 -15.46875 L 11.59375 0 Z M 24.859375 -26.140625 L 47.234375 -26.140625 L 40.78125 -40.046875 L 36.359375 -51.921875 L 31.578125 -39.859375 Z M 24.859375 -26.140625 "/></g></g></g><g fill="#ffffff" fill-opacity="1"><g transform="translate(200.219603, 72.842297)"><g><path d="M 30.5625 0.375 L -1.5625 -64.078125 L -1.5625 -64.4375 L 12.515625 -64.4375 L 32.59375 -23.5625 L 37.015625 -10.671875 L 41.609375 -23.65625 L 61.6875 -64.4375 L 75.765625 -64.4375 L 75.765625 -63.890625 L 43.078125 0.375 Z M 30.5625 0.375 "/></g></g></g><g fill="#ffffff" fill-opacity="1"><g transform="translate(276.079119, 72.842297)"><g><path d="M 4.609375 0 L 4.609375 -64.4375 L 17.40625 -64.4375 L 17.40625 0 Z M 4.609375 0 "/></g></g></g><g fill="#ffffff" fill-opacity="1"><g transform="translate(302.501053, 72.842297)"><g><path d="M 24.21875 0 L 24.21875 -53.484375 L -0.828125 -53.484375 L -0.828125 -64.4375 L 62.046875 -64.4375 L 62.046875 -53.484375 L 37.09375 -53.484375 L 37.09375 0 Z M 24.21875 0 "/></g></g></g><g fill="#ffffff" fill-opacity="1"><g transform="translate(369.1543, 72.842297)"><g><path d="M 27.53125 0 L 27.53125 -25.140625 L -2.390625 -64.4375 L 12.515625 -64.4375 L 33.96875 -35.90625 L 55.515625 -64.4375 L 70.421875 -64.4375 L 40.421875 -25.140625 L 40.421875 0 Z M 27.53125 0 "/></g></g></g><g fill="#00adef" fill-opacity="1"><g transform="translate(442.071772, 72.842297)"><g><path d="M 24.21875 0 L 24.21875 -53.484375 L -0.828125 -53.484375 L -0.828125 -64.4375 L 62.046875 -64.4375 L 62.046875 -53.484375 L 37.09375 -53.484375 L 37.09375 0 Z M 24.21875 0 "/></g></g></g><g fill="#00adef" fill-opacity="1"><g transform="translate(504.858405, 72.842297)"><g><path d="M 4.515625 0 L 4.515625 -64.4375 L 56.0625 -64.4375 L 56.0625 -53.484375 L 16.84375 -53.484375 L 16.84375 -37.46875 L 54.5 -37.46875 L 54.5 -26.875 L 16.84375 -26.875 L 16.84375 -10.953125 L 56.0625 -10.953125 L 56.0625 0 Z M 4.515625 0 "/></g></g></g><g fill="#00adef" fill-opacity="1"><g transform="translate(566.26409, 72.842297)"><g><path d="M 35.359375 1.5625 C 30.378906 1.5625 25.785156 0.71875 21.578125 -0.96875 C 17.378906 -2.65625 13.742188 -5.015625 10.671875 -8.046875 C 7.609375 -11.085938 5.234375 -14.679688 3.546875 -18.828125 C 1.859375 -22.972656 1.015625 -27.5 1.015625 -32.40625 C 1.015625 -37.3125 1.859375 -41.820312 3.546875 -45.9375 C 5.234375 -50.050781 7.609375 -53.609375 10.671875 -56.609375 C 13.742188 -59.617188 17.378906 -61.953125 21.578125 -63.609375 C 25.785156 -65.265625 30.378906 -66.09375 35.359375 -66.09375 C 39.523438 -66.09375 43.617188 -65.414062 47.640625 -64.0625 C 51.660156 -62.71875 55.265625 -60.554688 58.453125 -57.578125 C 61.648438 -54.609375 64.140625 -50.632812 65.921875 -45.65625 L 55.328125 -41.890625 C 53.921875 -45.265625 52.125 -47.882812 49.9375 -49.75 C 47.757812 -51.625 45.410156 -52.945312 42.890625 -53.71875 C 40.378906 -54.488281 37.867188 -54.875 35.359375 -54.875 C 31.179688 -54.875 27.492188 -53.921875 24.296875 -52.015625 C 21.109375 -50.109375 18.609375 -47.46875 16.796875 -44.09375 C 14.984375 -40.71875 14.078125 -36.820312 14.078125 -32.40625 C 14.078125 -28.050781 14.984375 -24.140625 16.796875 -20.671875 C 18.609375 -17.203125 21.109375 -14.484375 24.296875 -12.515625 C 27.492188 -10.554688 31.179688 -9.578125 35.359375 -9.578125 C 37.867188 -9.578125 40.378906 -9.988281 42.890625 -10.8125 C 45.410156 -11.644531 47.757812 -13.054688 49.9375 -15.046875 C 52.125 -17.046875 53.921875 -19.734375 55.328125 -23.109375 L 66.46875 -19.609375 C 64.382812 -14.453125 61.710938 -10.320312 58.453125 -7.21875 C 55.203125 -4.125 51.597656 -1.882812 47.640625 -0.5 C 43.679688 0.875 39.585938 1.5625 35.359375 1.5625 Z M 35.359375 1.5625 "/></g></g></g><g fill="#00adef" fill-opacity="1"><g transform="translate(636.231604, 72.842297)"><g><path d="M 4.609375 0 L 4.609375 -64.4375 L 17.484375 -64.4375 L 17.484375 -37.75 L 52.203125 -37.75 L 52.203125 -64.4375 L 65 -64.4375 L 65 0 L 52.203125 0 L 52.203125 -26.703125 L 17.484375 -26.703125 L 17.484375 0 Z M 4.609375 0 "/></g></g></g></g></g></g><g transform="matrix(1, 0, 0, 1, 324, 92)"><g clip-path="url(#bcf492e852)"><g fill="#00adef" fill-opacity="1"><g transform="translate(0.0757024, 49.47646)"><g><path d="M 14.921875 0.328125 C 12.492188 0.328125 10.320312 -0.0625 8.40625 -0.84375 C 6.488281 -1.632812 4.953125 -2.800781 3.796875 -4.34375 C 2.648438 -5.882812 2.046875 -7.742188 1.984375 -9.921875 L 10.578125 -9.921875 C 10.703125 -8.691406 11.125 -7.753906 11.84375 -7.109375 C 12.570312 -6.460938 13.519531 -6.140625 14.6875 -6.140625 C 15.882812 -6.140625 16.828125 -6.414062 17.515625 -6.96875 C 18.210938 -7.519531 18.5625 -8.28125 18.5625 -9.25 C 18.5625 -10.070312 18.285156 -10.75 17.734375 -11.28125 C 17.179688 -11.820312 16.503906 -12.265625 15.703125 -12.609375 C 14.898438 -12.953125 13.757812 -13.34375 12.28125 -13.78125 C 10.132812 -14.445312 8.382812 -15.109375 7.03125 -15.765625 C 5.675781 -16.429688 4.507812 -17.410156 3.53125 -18.703125 C 2.5625 -19.992188 2.078125 -21.675781 2.078125 -23.75 C 2.078125 -26.832031 3.191406 -29.25 5.421875 -31 C 7.660156 -32.75 10.578125 -33.625 14.171875 -33.625 C 17.816406 -33.625 20.753906 -32.75 22.984375 -31 C 25.222656 -29.25 26.421875 -26.816406 26.578125 -23.703125 L 17.84375 -23.703125 C 17.78125 -24.773438 17.382812 -25.617188 16.65625 -26.234375 C 15.9375 -26.847656 15.007812 -27.15625 13.875 -27.15625 C 12.90625 -27.15625 12.117188 -26.894531 11.515625 -26.375 C 10.921875 -25.851562 10.625 -25.101562 10.625 -24.125 C 10.625 -23.050781 11.125 -22.21875 12.125 -21.625 C 13.132812 -21.03125 14.710938 -20.382812 16.859375 -19.6875 C 18.992188 -18.96875 20.726562 -18.273438 22.0625 -17.609375 C 23.40625 -16.953125 24.566406 -15.992188 25.546875 -14.734375 C 26.523438 -13.472656 27.015625 -11.851562 27.015625 -9.875 C 27.015625 -7.976562 26.53125 -6.257812 25.5625 -4.71875 C 24.601562 -3.175781 23.210938 -1.945312 21.390625 -1.03125 C 19.566406 -0.125 17.410156 0.328125 14.921875 0.328125 Z M 14.921875 0.328125 "/></g></g></g><g fill="#00adef" fill-opacity="1"><g transform="translate(29.112875, 49.47646)"><g><path d="M 18.609375 0.328125 C 15.484375 0.328125 12.625 -0.394531 10.03125 -1.84375 C 7.4375 -3.289062 5.375 -5.3125 3.84375 -7.90625 C 2.320312 -10.507812 1.5625 -13.429688 1.5625 -16.671875 C 1.5625 -19.910156 2.320312 -22.820312 3.84375 -25.40625 C 5.375 -27.988281 7.4375 -30.003906 10.03125 -31.453125 C 12.625 -32.898438 15.484375 -33.625 18.609375 -33.625 C 21.722656 -33.625 24.578125 -32.898438 27.171875 -31.453125 C 29.765625 -30.003906 31.8125 -27.988281 33.3125 -25.40625 C 34.8125 -22.820312 35.5625 -19.910156 35.5625 -16.671875 C 35.5625 -13.429688 34.800781 -10.507812 33.28125 -7.90625 C 31.769531 -5.3125 29.722656 -3.289062 27.140625 -1.84375 C 24.566406 -0.394531 21.722656 0.328125 18.609375 0.328125 Z M 18.609375 -7.03125 C 21.253906 -7.03125 23.367188 -7.910156 24.953125 -9.671875 C 26.546875 -11.441406 27.34375 -13.773438 27.34375 -16.671875 C 27.34375 -19.597656 26.546875 -21.929688 24.953125 -23.671875 C 23.367188 -25.421875 21.253906 -26.296875 18.609375 -26.296875 C 15.929688 -26.296875 13.796875 -25.429688 12.203125 -23.703125 C 10.617188 -21.972656 9.828125 -19.628906 9.828125 -16.671875 C 9.828125 -13.742188 10.617188 -11.40625 12.203125 -9.65625 C 13.796875 -7.90625 15.929688 -7.03125 18.609375 -7.03125 Z M 18.609375 -7.03125 "/></g></g></g><g fill="#00adef" fill-opacity="1"><g transform="translate(66.223808, 49.47646)"><g><path d="M 24.5 -33.140625 L 24.5 -26.671875 L 11 -26.671875 L 11 -19.6875 L 21.109375 -19.6875 L 21.109375 -13.40625 L 11 -13.40625 L 11 0 L 2.921875 0 L 2.921875 -33.140625 Z M 24.5 -33.140625 "/></g></g></g><g fill="#00adef" fill-opacity="1"><g transform="translate(92.050375, 49.47646)"><g><path d="M 26.765625 -33.140625 L 26.765625 -26.671875 L 17.984375 -26.671875 L 17.984375 0 L 9.921875 0 L 9.921875 -26.671875 L 1.140625 -26.671875 L 1.140625 -33.140625 Z M 26.765625 -33.140625 "/></g></g></g><g fill="#00adef" fill-opacity="1"><g transform="translate(119.954399, 49.47646)"><g><path d="M 48.546875 -33.140625 L 39.90625 0 L 30.125 0 L 24.84375 -21.8125 L 19.359375 0 L 9.578125 0 L 1.1875 -33.140625 L 9.828125 -33.140625 L 14.59375 -9.015625 L 20.5 -33.140625 L 29.375 -33.140625 L 35.03125 -9.015625 L 39.859375 -33.140625 Z M 48.546875 -33.140625 "/></g></g></g><g fill="#00adef" fill-opacity="1"><g transform="translate(169.624501, 49.47646)"><g><path d="M 23.5625 -5.859375 L 11.1875 -5.859375 L 9.203125 0 L 0.75 0 L 12.75 -33.140625 L 22.09375 -33.140625 L 34.09375 0 L 25.546875 0 Z M 21.484375 -12.09375 L 17.375 -24.21875 L 13.3125 -12.09375 Z M 21.484375 -12.09375 "/></g></g></g><g fill="#00adef" fill-opacity="1"><g transform="translate(204.421896, 49.47646)"><g><path d="M 19.828125 0 L 12.9375 -12.515625 L 11 -12.515625 L 11 0 L 2.921875 0 L 2.921875 -33.140625 L 16.484375 -33.140625 C 19.097656 -33.140625 21.320312 -32.679688 23.15625 -31.765625 C 25 -30.859375 26.375 -29.609375 27.28125 -28.015625 C 28.195312 -26.429688 28.65625 -24.664062 28.65625 -22.71875 C 28.65625 -20.507812 28.035156 -18.539062 26.796875 -16.8125 C 25.554688 -15.082031 23.722656 -13.851562 21.296875 -13.125 L 28.9375 0 Z M 11 -18.21875 L 16 -18.21875 C 17.476562 -18.21875 18.585938 -18.582031 19.328125 -19.3125 C 20.078125 -20.039062 20.453125 -21.0625 20.453125 -22.375 C 20.453125 -23.632812 20.078125 -24.625 19.328125 -25.34375 C 18.585938 -26.070312 17.476562 -26.4375 16 -26.4375 L 11 -26.4375 Z M 11 -18.21875 "/></g></g></g><g fill="#00adef" fill-opacity="1"><g transform="translate(235.206021, 49.47646)"><g><path d="M 11 -26.671875 L 11 -19.96875 L 21.8125 -19.96875 L 21.8125 -13.734375 L 11 -13.734375 L 11 -6.46875 L 23.234375 -6.46875 L 23.234375 0 L 2.921875 0 L 2.921875 -33.140625 L 23.234375 -33.140625 L 23.234375 -26.671875 Z M 11 -26.671875 "/></g></g></g></g></g></g></g></svg>